<svg width="0" height="0" class="hidden">
    <symbol class="w-6 h-6 text-gray-800 dark:text-white" aria-hidden="true" xmlns="http://www.w3.org/2000/svg" fill="currentColor" viewBox="0 0 20 20" id="home">
        <path d="m19.707 9.293-2-2-7-7a1 1 0 0 0-1.414 0l-7 7-2 2a1 1 0 0 0 1.414 1.414L2 10.414V18a2 2 0 0 0 2 2h3a1 1 0 0 0 1-1v-4a1 1 0 0 1 1-1h2a1 1 0 0 1 1 1v4a1 1 0 0 0 1 1h3a2 2 0 0 0 2-2v-7.586l.293.293a1 1 0 0 0 1.414-1.414Z"/>
    </symbol>
    <symbol class="w-6 h-6 text-gray-800 dark:text-white" aria-hidden="true" xmlns="http://www.w3.org/2000/svg" fill="currentColor" viewBox="0 0 20 20" id="cart">
        <path d="M15 12a1 1 0 0 0 .962-.726l2-7A1 1 0 0 0 17 3H3.77L3.175.745A1 1 0 0 0 2.208 0H1a1 1 0 0 0 0 2h.438l.6 2.255v.019l2 7 .746 2.986A3 3 0 1 0 9 17a2.966 2.966 0 0 0-.184-1h2.368c-.118.32-.18.659-.184 1a3 3 0 1 0 3-3H6.78l-.5-2H15Z"/>
    </symbol>
     <symbol class="w-6 h-6 text-gray-800 dark:text-white" aria-hidden="true" xmlns="http://www.w3.org/2000/svg" fill="currentColor" viewBox="0 0 20 20" id="store">
       <path d="M17.876.517A1 1 0 0 0 17 0H3a1 1 0 0 0-.871.508C1.63 1.393 0 5.385 0 6.75a3.236 3.236 0 0 0 1 2.336V19a1 1 0 0 0 1 1h2a1 1 0 0 0 1-1v-6h4v6a1 1 0 0 0 1 1h8a1 1 0 0 0 1-1V9.044a3.242 3.242 0 0 0 1-2.294c0-1.283-1.626-5.33-2.124-6.233ZM15.5 14.7a.8.8 0 0 1-.8.8h-2.4a.8.8 0 0 1-.8-.8v-2.4a.8.8 0 0 1 .8-.8h2.4a.8.8 0 0 1 .8.8v2.4ZM16.75 8a1.252 1.252 0 0 1-1.25-1.25 1 1 0 0 0-2 0 1.25 1.25 0 0 1-2.5 0 1 1 0 0 0-2 0 1.25 1.25 0 0 1-2.5 0 1 1 0 0 0-2 0A1.252 1.252 0 0 1 3.25 8 1.266 1.266 0 0 1 2 6.75C2.306 5.1 2.841 3.501 3.591 2H16.4A19.015 19.015 0 0 1 18 6.75 1.337 1.337 0 0 1 16.75 8Z"/>
    </symbol>
    <symbol class="w-6 h-6 text-gray-800 dark:text-white" aria-hidden="true" xmlns="http://www.w3.org/2000/svg" fill="currentColor" viewBox="0 0 20 20" id="user">
       <path d="M10 0a10 10 0 1 0 10 10A10.011 10.011 0 0 0 10 0Zm0 5a3 3 0 1 1 0 6 3 3 0 0 1 0-6Zm0 13a8.949 8.949 0 0 1-4.951-1.488A3.987 3.987 0 0 1 9 13h2a3.987 3.987 0 0 1 3.951 3.512A8.949 8.949 0 0 1 10 18Z"/>
    </symbol>
</svg>
