<svg width="0" height="0" class="hidden">
    <symbol xmlns="http://www.w3.org/2000/svg" fill="currentColor" viewBox="0 0 20 20" id="home">
        <path d="m19.707 9.293-2-2-7-7a1 1 0 0 0-1.414 0l-7 7-2 2a1 1 0 0 0 1.414 1.414L2 10.414V18a2 2 0 0 0 2 2h3a1 1 0 0 0 1-1v-4a1 1 0 0 1 1-1h2a1 1 0 0 1 1 1v4a1 1 0 0 0 1 1h3a2 2 0 0 0 2-2v-7.586l.293.293a1 1 0 0 0 1.414-1.414Z"/>
    </symbol>
    <symbol xmlns="http://www.w3.org/2000/svg" fill="currentColor" viewBox="0 0 20 20" id="cart">
        <path d="M15 12a1 1 0 0 0 .962-.726l2-7A1 1 0 0 0 17 3H3.77L3.175.745A1 1 0 0 0 2.208 0H1a1 1 0 0 0 0 2h.438l.6 2.255v.019l2 7 .746 2.986A3 3 0 1 0 9 17a2.966 2.966 0 0 0-.184-1h2.368c-.118.32-.18.659-.184 1a3 3 0 1 0 3-3H6.78l-.5-2H15Z"/>
    </symbol>
    <symbol xmlns="http://www.w3.org/2000/svg" fill="currentColor" viewBox="0 0 20 20" id="store">
        <path d="M17.876.517A1 1 0 0 0 17 0H3a1 1 0 0 0-.871.508C1.63 1.393 0 5.385 0 6.75a3.236 3.236 0 0 0 1 2.336V19a1 1 0 0 0 1 1h2a1 1 0 0 0 1-1v-6h4v6a1 1 0 0 0 1 1h8a1 1 0 0 0 1-1V9.044a3.242 3.242 0 0 0 1-2.294c0-1.283-1.626-5.33-2.124-6.233ZM15.5 14.7a.8.8 0 0 1-.8.8h-2.4a.8.8 0 0 1-.8-.8v-2.4a.8.8 0 0 1 .8-.8h2.4a.8.8 0 0 1 .8.8v2.4ZM16.75 8a1.252 1.252 0 0 1-1.25-1.25 1 1 0 0 0-2 0 1.25 1.25 0 0 1-2.5 0 1 1 0 0 0-2 0 1.25 1.25 0 0 1-2.5 0 1 1 0 0 0-2 0A1.252 1.252 0 0 1 3.25 8 1.266 1.266 0 0 1 2 6.75C2.306 5.1 2.841 3.501 3.591 2H16.4A19.015 19.015 0 0 1 18 6.75 1.337 1.337 0 0 1 16.75 8Z"/>
    </symbol>
    <symbol xmlns="http://www.w3.org/2000/svg" viewBox="0 0 512 512" id="products">
        <path d="M507 211.16c-1.42-1.19-14.25-10.94-41.79-10.94a132.55 132.55 0 00-21.61 1.9c-5.22-36.4-35.38-54-36.57-55l-7.36-4.28-4.75 6.9a101.65 101.65 0 00-13.06 30.45c-5 20.7-1.9 40.2 8.55 56.85-12.59 7.14-33 8.8-37.28 9H15.94A15.93 15.93 0 000 262.07a241.25 241.25 0 0014.75 86.83C26.39 379.35 43.72 402 66 415.74 91.22 431.2 132.3 440 178.6 440a344.23 344.23 0 0062.45-5.71 257.44 257.44 0 0081.69-29.73 223.55 223.55 0 0055.57-45.67c26.83-30.21 42.74-64 54.38-94h4.75c29.21 0 47.26-11.66 57.23-21.65a63.31 63.31 0 0015.2-22.36l2.14-6.18z"></path>
        <path d="M47.29 236.37H92.4a4 4 0 004-4v-40.48a4 4 0 00-4-4H47.29a4 4 0 00-4 4v40.44a4.16 4.16 0 004 4M109.5 236.37h45.12a4 4 0 004-4v-40.48a4 4 0 00-4-4H109.5a4 4 0 00-4 4v40.44a4.16 4.16 0 004 4M172.9 236.37H218a4 4 0 004-4v-40.48a4 4 0 00-4-4h-45.1a4 4 0 00-4 4v40.44a3.87 3.87 0 004 4M235.36 236.37h45.12a4 4 0 004-4v-40.48a4 4 0 00-4-4h-45.12a4 4 0 00-4 4v40.44a4 4 0 004 4M109.5 178.57h45.12a4.16 4.16 0 004-4v-40.48a4 4 0 00-4-4H109.5a4 4 0 00-4 4v40.44a4.34 4.34 0 004 4M172.9 178.57H218a4.16 4.16 0 004-4v-40.48a4 4 0 00-4-4h-45.1a4 4 0 00-4 4v40.44a4 4 0 004 4M235.36 178.57h45.12a4.16 4.16 0 004-4v-40.48a4.16 4.16 0 00-4-4h-45.12a4 4 0 00-4 4v40.44a4.16 4.16 0 004 4M235.36 120.53h45.12a4 4 0 004-4V76a4.16 4.16 0 00-4-4h-45.12a4 4 0 00-4 4v40.44a4.17 4.17 0 004 4M298.28 236.37h45.12a4 4 0 004-4v-40.48a4 4 0 00-4-4h-45.12a4 4 0 00-4 4v40.44a4.16 4.16 0 004 4"></path>
    </symbol>
    <symbol xmlns="http://www.w3.org/2000/svg" viewBox="0 0 512 512" id="twitter">
        <path d="M496 109.5a201.8 201.8 0 01-56.55 15.3 97.51 97.51 0 0043.33-53.6 197.74 197.74 0 01-62.56 23.5A99.14 99.14 0 00348.31 64c-54.42 0-98.46 43.4-98.46 96.9a93.21 93.21 0 002.54 22.1 280.7 280.7 0 01-203-101.3A95.69 95.69 0 0036 130.4c0 33.6 17.53 63.3 44 80.7A97.5 97.5 0 0135.22 199v1.2c0 47 34 86.1 79 95a100.76 100.76 0 01-25.94 3.4 94.38 94.38 0 01-18.51-1.8c12.51 38.5 48.92 66.5 92.05 67.3A199.59 199.59 0 0139.5 405.6a203 203 0 01-23.5-1.4A278.68 278.68 0 00166.74 448c181.36 0 280.44-147.7 280.44-275.8 0-4.2-.11-8.4-.31-12.5A198.48 198.48 0 00496 109.5z"></path>
    </symbol>
    <symbol xmlns="http://www.w3.org/2000/svg" viewBox="0 0 512 512" id="tiktok">
        <path d="M412.19 118.66a109.27 109.27 0 01-9.45-5.5 132.87 132.87 0 01-24.27-20.62c-18.1-20.71-24.86-41.72-27.35-56.43h.1C349.14 23.9 350 16 350.13 16h-82.44v318.78c0 4.28 0 8.51-.18 12.69 0 .52-.05 1-.08 1.56 0 .23 0 .47-.05.71v.18a70 70 0 01-35.22 55.56 68.8 68.8 0 01-34.11 9c-38.41 0-69.54-31.32-69.54-70s31.13-70 69.54-70a68.9 68.9 0 0121.41 3.39l.1-83.94a153.14 153.14 0 00-118 34.52 161.79 161.79 0 00-35.3 43.53c-3.48 6-16.61 30.11-18.2 69.24-1 22.21 5.67 45.22 8.85 54.73v.2c2 5.6 9.75 24.71 22.38 40.82A167.53 167.53 0 00115 470.66v-.2l.2.2c39.91 27.12 84.16 25.34 84.16 25.34 7.66-.31 33.32 0 62.46-13.81 32.32-15.31 50.72-38.12 50.72-38.12a158.46 158.46 0 0027.64-45.93c7.46-19.61 9.95-43.13 9.95-52.53V176.49c1 .6 14.32 9.41 14.32 9.41s19.19 12.3 49.13 20.31c21.48 5.7 50.42 6.9 50.42 6.9v-81.84c-10.14 1.1-30.73-2.1-51.81-12.61z"></path>
    </symbol>
    <symbol xmlns="http://www.w3.org/2000/svg" viewBox="0 0 512 512" id="payment">
        <rect x="48" y="96" width="416" height="320" rx="56" ry="56" fill="none" stroke="currentColor" stroke-linecap="round" stroke-linejoin="round" stroke-width="32"></rect>
        <path fill="none" stroke="currentColor" stroke-linejoin="round" stroke-width="60" d="M48 192h416M128 300h48v20h-48z"></path>
    </symbol>
    <symbol xmlns="http://www.w3.org/2000/svg" viewBox="0 0 512 512" id="linkedin">
        <path d="M444.17 32H70.28C49.85 32 32 46.7 32 66.89v374.72C32 461.91 49.85 480 70.28 480h373.78c20.54 0 35.94-18.21 35.94-38.39V66.89C480.12 46.7 464.6 32 444.17 32zm-273.3 373.43h-64.18V205.88h64.18zM141 175.54h-.46c-20.54 0-33.84-15.29-33.84-34.43 0-19.49 13.65-34.42 34.65-34.42s33.85 14.82 34.31 34.42c-.01 19.14-13.31 34.43-34.66 34.43zm264.43 229.89h-64.18V296.32c0-26.14-9.34-44-32.56-44-17.74 0-28.24 12-32.91 23.69-1.75 4.2-2.22 9.92-2.22 15.76v113.66h-64.18V205.88h64.18v27.77c9.34-13.3 23.93-32.44 57.88-32.44 42.13 0 74 27.77 74 87.64z"></path>
    </symbol>
    <symbol xmlns="http://www.w3.org/2000/svg" viewBox="0 0 512 512" id="instagram">
        <path d="M349.33 69.33a93.62 93.62 0 0193.34 93.34v186.66a93.62 93.62 0 01-93.34 93.34H162.67a93.62 93.62 0 01-93.34-93.34V162.67a93.62 93.62 0 0193.34-93.34h186.66m0-37.33H162.67C90.8 32 32 90.8 32 162.67v186.66C32 421.2 90.8 480 162.67 480h186.66C421.2 480 480 421.2 480 349.33V162.67C480 90.8 421.2 32 349.33 32z"></path>
        <path d="M377.33 162.67a28 28 0 1128-28 27.94 27.94 0 01-28 28zM256 181.33A74.67 74.67 0 11181.33 256 74.75 74.75 0 01256 181.33m0-37.33a112 112 0 10112 112 112 112 0 00-112-112z"></path>
    </symbol>
    <symbol xmlns="http://www.w3.org/2000/svg" viewBox="0 0 512 512" id="follow">
        <circle cx="128" cy="256" r="48" fill="none" stroke="currentColor" stroke-linecap="round" stroke-linejoin="round" stroke-width="32"></circle>
        <circle cx="384" cy="112" r="48" fill="none" stroke="currentColor" stroke-linecap="round" stroke-linejoin="round" stroke-width="32"></circle>
        <circle cx="384" cy="400" r="48" fill="none" stroke="currentColor" stroke-linecap="round" stroke-linejoin="round" stroke-width="32"></circle>
        <path fill="none" stroke="currentColor" stroke-linecap="round" stroke-linejoin="round" stroke-width="32" d="M169.83 279.53l172.34 96.94M342.17 135.53l-172.34 96.94"></path>
    </symbol>
    <symbol xmlns="http://www.w3.org/2000/svg" viewBox="0 0 512 512" id="facebook">
        <path d="M480 257.35c0-123.7-100.3-224-224-224s-224 100.3-224 224c0 111.8 81.9 204.47 189 221.29V322.12h-56.89v-64.77H221V208c0-56.13 33.45-87.16 84.61-87.16 24.51 0 50.15 4.38 50.15 4.38v55.13H327.5c-27.81 0-36.51 17.26-36.51 35v42h62.12l-9.92 64.77H291v156.54c107.1-16.81 189-109.48 189-221.31z" fill-rule="evenodd"></path>
    </symbol>
    <symbol xmlns="http://www.w3.org/2000/svg" viewBox="0 0 512 512" id="delivery">
        <path d="M469.71 234.6c-7.33-9.73-34.56-16.43-46.08-33.94s-20.95-55.43-50.27-70S288 112 256 112s-88 4-117.36 18.63-38.75 52.52-50.27 70-38.75 24.24-46.08 33.97S29.8 305.84 32.94 336s9 48 9 48h86c14.08 0 18.66-5.29 47.46-8 31.6-3 62.6-4 80.6-4s50 1 81.58 4c28.8 2.73 33.53 8 47.46 8h85s5.86-17.84 9-48-2.04-91.67-9.33-101.4zM400 384h56v16h-56zM56 384h56v16H56z" fill="none" stroke="currentColor" stroke-linecap="round" stroke-linejoin="round" stroke-width="32"></path>
        <path d="M364.47 309.16c-5.91-6.83-25.17-12.53-50.67-16.35S279 288 256.2 288s-33.17 1.64-57.61 4.81-42.79 8.81-50.66 16.35C136.12 320.6 153.42 333.44 167 335c13.16 1.5 39.47.95 89.31.95s76.15.55 89.31-.95c13.56-1.65 29.62-13.6 18.85-25.84zM431.57 243.05a3.23 3.23 0 00-3.1-3c-11.81-.42-23.8.42-45.07 6.69a93.88 93.88 0 00-30.08 15.06c-2.28 1.78-1.47 6.59 1.39 7.1a455.32 455.32 0 0052.82 3.1c10.59 0 21.52-3 23.55-12.44a52.41 52.41 0 00.49-16.51zM80.43 243.05a3.23 3.23 0 013.1-3c11.81-.42 23.8.42 45.07 6.69a93.88 93.88 0 0130.08 15.06c2.28 1.78 1.47 6.59-1.39 7.1a455.32 455.32 0 01-52.82 3.1c-10.59 0-21.52-3-23.55-12.44a52.41 52.41 0 01-.49-16.51z"></path>
        <path fill="none" stroke="currentColor" stroke-linecap="round" stroke-linejoin="round" stroke-width="32" d="M432 192h16M64 192h16M78 211s46.35-12 178-12 178 12 178 12"></path>
    </symbol>
    <symbol xmlns="http://www.w3.org/2000/svg" viewBox="0 0 512 512" id="wallet">
        <rect x="48" y="144" width="416" height="288" rx="48" ry="48" fill="none" stroke="currentColor" stroke-linejoin="round" stroke-width="32"></rect>
        <path d="M411.36 144v-30A50 50 0 00352 64.9L88.64 109.85A50 50 0 0048 159v49" fill="none" stroke="currentColor" stroke-linejoin="round" stroke-width="32"></path>
        <path d="M368 320a32 32 0 1132-32 32 32 0 01-32 32z"></path>
    </symbol>
    <symbol xmlns="http://www.w3.org/2000/svg" viewBox="0 0 512 512" id="airplane">
        <path d="M407.72 224c-3.4 0-14.79.1-18 .3l-64.9 1.7a1.83 1.83 0 01-1.69-.9L193.55 67.56a9 9 0 00-6.66-3.56H160l73 161a2.35 2.35 0 01-2.26 3.35l-121.69 1.8a8.06 8.06 0 01-6.6-3.1l-37-45c-3-3.9-8.62-6-13.51-6H33.08c-1.29 0-1.1 1.21-.75 2.43l19.84 71.42a16.3 16.3 0 010 11.9L32.31 333c-.59 1.95-.52 3 1.77 3H52c8.14 0 9.25-1.06 13.41-6.3l37.7-45.7a8.19 8.19 0 016.6-3.1l120.68 2.7a2.7 2.7 0 012.43 3.74L160 448h26.64a9 9 0 006.65-3.55L323.14 287c.39-.6 2-.9 2.69-.9l63.9 1.7c3.3.2 14.59.3 18 .3C452 288.1 480 275.93 480 256s-27.88-32-72.28-32z" fill="none" stroke="currentColor" stroke-linecap="round" stroke-linejoin="round" stroke-width="32"></path>
    </symbol>
   <symbol xmlns="http://www.w3.org/2000/svg" viewBox="0 0 512 512" id="chevron-forward">
    <path fill="none" stroke="currentColor" stroke-linecap="round" stroke-linejoin="round" stroke-width="48" d="M184 112l144 144-144 144"></path>
  </symbol>
  <symbol xmlns="http://www.w3.org/2000/svg" viewBox="0 0 512 512" id="chevron-back">
    <path fill="none" stroke="currentColor" stroke-linecap="round" stroke-linejoin="round" stroke-width="48" d="M328 112L184 256l144 144"></path>
  </symbol>
  <symbol xmlns="http://www.w3.org/2000/svg" viewBox="0 0 512 512" id="search">
    <path d="M456.69 421.39L362.6 327.3a173.81 173.81 0 0034.84-104.58C397.44 126.38 319.06 48 222.72 48S48 126.38 48 222.72s78.38 174.72 174.72 174.72A173.81 173.81 0 00327.3 362.6l94.09 94.09a25 25 0 0035.3-35.3zM97.92 222.72a124.8 124.8 0 11124.8 124.8 124.95 124.95 0 01-124.8-124.8z"></path>
  </symbol>
   <symbol xmlns="http://www.w3.org/2000/svg" viewBox="0 0 512 512" id="star">
    <path d="M394 480a16 16 0 01-9.39-3L256 383.76 127.39 477a16 16 0 01-24.55-18.08L153 310.35 23 221.2a16 16 0 019-29.2h160.38l48.4-148.95a16 16 0 0130.44 0l48.4 149H480a16 16 0 019.05 29.2L359 310.35l50.13 148.53A16 16 0 01394 480z"></path>
  </symbol>
  <symbol xmlns="http://www.w3.org/2000/svg" viewBox="0 0 512 512" id="star-half">
    <path d="M480 208H308L256 48l-52 160H32l140 96-54 160 138-100 138 100-54-160z" fill="none" stroke="currentColor" stroke-linejoin="round" stroke-width="32"></path>
    <path d="M256 48v316L118 464l54-160-140-96h172l52-160z"></path>
  </symbol>
    <symbol xmlns="http://www.w3.org/2000/svg" viewBox="0 0 512 512" id="star-empty">
    <path d="M480 208H308L256 48l-52 160H32l140 96-54 160 138-100 138 100-54-160z" fill="none" stroke="currentColor" stroke-linejoin="round" stroke-width="32"></path>
  </symbol>
   <symbol xmlns="http://www.w3.org/2000/svg" viewBox="0 0 512 512" id="view">
    <circle cx="256" cy="256" r="64"></circle>
    <path d="M490.84 238.6c-26.46-40.92-60.79-75.68-99.27-100.53C349 110.55 302 96 255.66 96c-42.52 0-84.33 12.15-124.27 36.11-40.73 24.43-77.63 60.12-109.68 106.07a31.92 31.92 0 00-.64 35.54c26.41 41.33 60.4 76.14 98.28 100.65C162 402 207.9 416 255.66 416c46.71 0 93.81-14.43 136.2-41.72 38.46-24.77 72.72-59.66 99.08-100.92a32.2 32.2 0 00-.1-34.76zM256 352a96 96 0 1196-96 96.11 96.11 0 01-96 96z"></path>
  </symbol>
  <symbol xmlns="http://www.w3.org/2000/svg" viewBox="0 0 512 512" id="delete">
    <path d="M296 64h-80a7.91 7.91 0 00-8 8v24h96V72a7.91 7.91 0 00-8-8z" fill="none"></path>
    <path d="M432 96h-96V72a40 40 0 00-40-40h-80a40 40 0 00-40 40v24H80a16 16 0 000 32h17l19 304.92c1.42 26.85 22 47.08 48 47.08h184c26.13 0 46.3-19.78 48-47l19-305h17a16 16 0 000-32zM192.57 416H192a16 16 0 01-16-15.43l-8-224a16 16 0 1132-1.14l8 224A16 16 0 01192.57 416zM272 400a16 16 0 01-32 0V176a16 16 0 0132 0zm32-304h-96V72a7.91 7.91 0 018-8h80a7.91 7.91 0 018 8zm32 304.57A16 16 0 01320 416h-.58A16 16 0 01304 399.43l8-224a16 16 0 1132 1.14z"></path>
  </symbol>
</svg>
